{
  "accessors": [
    {
      "bufferView": 1,
      "componentType": 5126,
      "count": 509,
      "max": [
        721.5988159179688,
        2.875,
        323.04327392578125
      ],
      "min": [
        205.4113006591797,
        -190.625,
        42.019405364990234
      ],
      "type": "VEC3"
    },
    {
      "bufferView": 1,
      "byteOffset": 6108,
      "componentType": 5126,
      "count": 509,
      "max": [
        0.9985883235931396,
        0.0,
        1.0
      ],
      "min": [
        -0.9985883235931396,
        -1.0,
        -1.0
      ],
      "type": "VEC3"
    },
    {
      "bufferView": 0,
      "componentType": 5125,
      "count": 1629,
      "type": "SCALAR"
    },
    {
      "bufferView": 1,
      "byteOffset": 12216,
      "componentType": 5126,
      "count": 607,
      "max": [
        721.5988159179688,
        0.0,
        323.04327392578125
      ],
      "min": [
        205.4113006591797,
        -190.625,
        69.35575866699219
      ],
      "type": "VEC3"
    },
    {
      "bufferView": 1,
      "byteOffset": 19500,
      "componentType": 5126,
      "count": 607,
      "max": [
        1.0,
        1.0,
        1.0
      ],
      "min": [
        -1.0,
        -1.0,
        -1.0
      ],
      "type": "VEC3"
    },
    {
      "bufferView": 0,
      "byteOffset": 6516,
      "componentType": 5125,
      "count": 2103,
      "type": "SCALAR"
    },
    {
      "bufferView": 1,
      "byteOffset": 26784,
      "componentType": 5126,
      "count": 12,
      "max": [
        205.4113006591797,
        -32.78078842163086,
        119.75143432617188
      ],
      "min": [
        205.4113006591797,
        -157.03079223632813,
        76.42721557617188
      ],
      "type": "VEC3"
    },
    {
      "bufferView": 1,
      "byteOffset": 26928,
      "componentType": 5126,
      "count": 12,
      "max": [
        -1.0,
        0.0,
        0.0
      ],
      "min": [
        -1.0,
        0.0,
        0.0
      ],
      "type": "VEC3"
    },
    {
      "bufferView": 0,
      "byteOffset": 14928,
      "componentType": 5125,
      "count": 18,
      "type": "SCALAR"
    },
    {
      "bufferView": 1,
      "byteOffset": 27072,
      "componentType": 5126,
      "count": 3244,
      "max": [
        716.5988159179688,
        2.875,
        96.6921157836914
      ],
      "min": [
        297.59295654296875,
        -195.125,
        42.019405364990234
      ],
      "type": "VEC3"
    },
    {
      "bufferView": 1,
      "byteOffset": 66000,
      "componentType": 5126,
      "count": 3244,
      "max": [
        1.0,
        1.0,
        1.0
      ],
      "min": [
        -1.0,
        -1.0,
        -1.0
      ],
      "type": "VEC3"
    },
    {
      "bufferView": 0,
      "byteOffset": 15000,
      "componentType": 5125,
      "count": 9078,
      "type": "SCALAR"
    },
    {
      "bufferView": 1,
      "byteOffset": 104928,
      "componentType": 5126,
      "count": 24,
      "max": [
        640.8748779296875,
        0.0,
        314.998779296875
      ],
      "min": [
        330.15020751953125,
        -190.625,
        160.07998657226563
      ],
      "type": "VEC3"
    },
    {
      "bufferView": 1,
      "byteOffset": 105216,
      "componentType": 5126,
      "count": 24,
      "max": [
        0.8745368123054504,
        1.0,
        0.4849591851234436
      ],
      "min": [
        -0.8859668970108032,
        -1.0,
        0.0
      ],
      "type": "VEC3"
    },
    {
      "bufferView": 0,
      "byteOffset": 51312,
      "componentType": 5125,
      "count": 36,
      "type": "SCALAR"
    },
    {
      "bufferView": 1,
      "byteOffset": 105504,
      "componentType": 5126,
      "count": 16,
      "max": [
        618.8475341796875,
        0.0,
        164.3785858154297
      ],
      "min": [
        456.8076171875,
        -190.625,
        149.92733764648438
      ],
      "type": "VEC3"
    },
    {
      "bufferView": 1,
      "byteOffset": 105696,
      "componentType": 5126,
      "count": 16,
      "max": [
        0.0,
        1.0,
        0.0
      ],
      "min": [
        0.0,
        -1.0,
        0.0
      ],
      "type": "VEC3"
    },
    {
      "bufferView": 0,
      "byteOffset": 51456,
      "componentType": 5125,
      "count": 24,
      "type": "SCALAR"
    },
    {
      "bufferView": 1,
      "byteOffset": 105888,
      "componentType": 5126,
      "count": 100,
      "max": [
        624.5482788085938,
        0.0,
        91.27701568603516
      ],
      "min": [
        303.008056640625,
        -190.625,
        47.434505462646484
      ],
      "type": "VEC3"
    },
    {
      "bufferView": 1,
      "byteOffset": 107088,
      "componentType": 5126,
      "count": 100,
      "max": [
        0.0,
        1.0,
        0.0
      ],
      "min": [
        0.0,
        -1.0,
        0.0
      ],
      "type": "VEC3"
    },
    {
      "bufferView": 0,
      "byteOffset": 51552,
      "componentType": 5125,
      "count": 276,
      "type": "SCALAR"
    },
    {
      "bufferView": 1,
      "byteOffset": 108288,
      "componentType": 5126,
      "count": 8,
      "max": [
        205.4113006591797,
        -6.309207916259766,
        143.7965545654297
      ],
      "min": [
        205.4113006591797,
        -184.3157958984375,
        124.24375915527344
      ],
      "type": "VEC3"
    },
    {
      "bufferView": 1,
      "byteOffset": 108384,
      "componentType": 5126,
      "count": 8,
      "max": [
        -1.0,
        0.0,
        0.0
      ],
      "min": [
        -1.0,
        0.0,
        0.0
      ],
      "type": "VEC3"
    },
    {
      "bufferView": 0,
      "byteOffset": 52656,
      "componentType": 5125,
      "count": 12,
      "type": "SCALAR"
    },
    {
      "bufferView": 1,
      "byteOffset": 108480,
      "componentType": 5126,
      "count": 16,
      "max": [
        205.4113006591797,
        -32.78078842163086,
        128.3557586669922
      ],
      "min": [
        205.4113006591797,
        -157.03079223632813,
        69.35575866699219
      ],
      "type": "VEC3"
    },
    {
      "bufferView": 1,
      "byteOffset": 108672,
      "componentType": 5126,
      "count": 16,
      "max": [
        -1.0,
        0.0,
        0.0
      ],
      "min": [
        -1.0,
        0.0,
        0.0
      ],
      "type": "VEC3"
    },
    {
      "bufferView": 0,
      "byteOffset": 52704,
      "componentType": 5125,
      "count": 24,
      "type": "SCALAR"
    },
    {
      "bufferView": 1,
      "byteOffset": 108864,
      "componentType": 5126,
      "count": 8,
      "max": [
        721.5988159179688,
        -7.011801242828369,
        143.09396362304688
      ],
      "min": [
        721.5988159179688,
        -183.6132049560547,
        124.34965515136719
      ],
      "type": "VEC3"
    },
    {
      "bufferView": 1,
      "byteOffset": 108960,
      "componentType": 5126,
      "count": 8,
      "max": [
        1.0,
        0.0,
        0.0
      ],
      "min": [
        1.0,
        0.0,
        0.0
      ],
      "type": "VEC3"
    },
    {
      "bufferView": 0,
      "byteOffset": 52800,
      "componentType": 5125,
      "count": 12,
      "type": "SCALAR"
    },
    {
      "bufferView": 1,
      "byteOffset": 109056,
      "componentType": 5126,
      "count": 4,
      "max": [
        715.5988159179688,
        -54.69635772705078,
        96.79124450683594
      ],
      "min": [
        715.5988159179688,
        -131.6338653564453,
        72.79124450683594
      ],
      "type": "VEC3"
    },
    {
      "bufferView": 1,
      "byteOffset": 109104,
      "componentType": 5126,
      "count": 4,
      "max": [
        1.0,
        0.0,
        0.0
      ],
      "min": [
        1.0,
        0.0,
        0.0
      ],
      "type": "VEC3"
    },
    {
      "bufferView": 0,
      "byteOffset": 52848,
      "componentType": 5125,
      "count": 6,
      "type": "SCALAR"
    }
  ],
  "asset": {
    "extras": {
      "author": "Designed By Jonathan (https://sketchfab.com/designedbyjonathan)",
      "license": "CC-BY-4.0 (http://creativecommons.org/licenses/by/4.0/)",
      "source": "https://sketchfab.com/3d-models/purple-low-poly-car-cfb94b193c00438e8c03b70ee467ffae",
      "title": "Purple Low Poly Car"
    },
    "generator": "Sketchfab-12.63.0",
    "version": "2.0"
  },
  "bufferViews": [
    {
      "buffer": 0,
      "byteLength": 52872,
      "name": "floatBufferViews",
      "target": 34963
    },
    {
      "buffer": 0,
      "byteLength": 109152,
      "byteOffset": 52872,
      "byteStride": 12,
      "name": "floatBufferViews",
      "target": 34962
    }
  ],
  "buffers": [
    {
      "byteLength": 162024,
      "uri": "scene.bin"
    }
  ],
  "materials": [
    {
      "name": "material",
      "pbrMetallicRoughness": {
        "metallicFactor": 0.0,
        "roughnessFactor": 0.6
      }
    },
    {
      "name": "Material4",
      "pbrMetallicRoughness": {
        "baseColorFactor": [
          0.20984345525116105,
          0.006150342742863045,
          0.3749243577773902,
          1.0
        ],
        "metallicFactor": 0.0,
        "roughnessFactor": 0.6
      }
    },
    {
      "name": "Material9",
      "pbrMetallicRoughness": {
        "baseColorFactor": [
          0.4,
          0.4,
          0.4,
          1.0
        ],
        "metallicFactor": 0.0,
        "roughnessFactor": 0.6
      }
    },
    {
      "name": "Material5",
      "pbrMetallicRoughness": {
        "baseColorFactor": [
          0.0941176,
          0.0941176,
          0.0941176,
          1.0
        ],
        "metallicFactor": 0.0,
        "roughnessFactor": 0.6
      }
    },
    {
      "name": "0096_SkyBlue",
      "pbrMetallicRoughness": {
        "baseColorFactor": [
          0.10203195572212091,
          0.5543208852383763,
          0.8193024440314856,
          1.0
        ],
        "metallicFactor": 0.0,
        "roughnessFactor": 0.6
      }
    },
    {
      "name": "0132_LightGray",
      "pbrMetallicRoughness": {
        "baseColorFactor": [
          0.42197790782417816,
          0.42197790782417816,
          0.42197790782417816,
          1.0
        ],
        "metallicFactor": 0.0,
        "roughnessFactor": 0.6
      }
    },
    {
      "name": "0117_GhostWhite",
      "pbrMetallicRoughness": {
        "baseColorFactor": [
          0.972549,
          0.972549,
          1.0,
          1.0
        ],
        "metallicFactor": 0.0,
        "roughnessFactor": 0.6
      }
    },
    {
      "name": "Material6",
      "pbrMetallicRoughness": {
        "baseColorFactor": [
          0.828292110066717,
          0.4106288662063093,
          0.0003151983555374416,
          1.0
        ],
        "metallicFactor": 0.0,
        "roughnessFactor": 0.6
      }
    },
    {
      "name": "Material7",
      "pbrMetallicRoughness": {
        "baseColorFactor": [
          0.498039,
          0.498039,
          0.494118,
          1.0
        ],
        "metallicFactor": 0.0,
        "roughnessFactor": 0.6
      }
    },
    {
      "name": "Material10",
      "pbrMetallicRoughness": {
        "baseColorFactor": [
          0.715855893155135,
          0.01176731356361969,
          0.03240823161932996,
          1.0
        ],
        "metallicFactor": 0.0,
        "roughnessFactor": 0.6
      }
    },
    {
      "name": "Material11",
      "pbrMetallicRoughness": {
        "baseColorFactor": [
          0.996078,
          0.996078,
          0.996078,
          1.0
        ],
        "metallicFactor": 0.0,
        "roughnessFactor": 0.6
      }
    }
  ],
  "meshes": [
    {
      "name": "Material3",
      "primitives": [
        {
          "attributes": {
            "NORMAL": 1,
            "POSITION": 0
          },
          "indices": 2,
          "material": 0,
          "mode": 4
        }
      ]
    },
    {
      "name": "Material2",
      "primitives": [
        {
          "attributes": {
            "NORMAL": 4,
            "POSITION": 3
          },
          "indices": 5,
          "material": 1,
          "mode": 4
        }
      ]
    },
    {
      "name": "Material3",
      "primitives": [
        {
          "attributes": {
            "NORMAL": 7,
            "POSITION": 6
          },
          "indices": 8,
          "material": 2,
          "mode": 4
        }
      ]
    },
    {
      "name": "Material2",
      "primitives": [
        {
          "attributes": {
            "NORMAL": 10,
            "POSITION": 9
          },
          "indices": 11,
          "material": 3,
          "mode": 4
        }
      ]
    },
    {
      "name": "Material3",
      "primitives": [
        {
          "attributes": {
            "NORMAL": 13,
            "POSITION": 12
          },
          "indices": 14,
          "material": 4,
          "mode": 4
        }
      ]
    },
    {
      "name": "Material3",
      "primitives": [
        {
          "attributes": {
            "NORMAL": 16,
            "POSITION": 15
          },
          "indices": 17,
          "material": 5,
          "mode": 4
        }
      ]
    },
    {
      "name": "Material3",
      "primitives": [
        {
          "attributes": {
            "NORMAL": 19,
            "POSITION": 18
          },
          "indices": 20,
          "material": 6,
          "mode": 4
        }
      ]
    },
    {
      "name": "Material3",
      "primitives": [
        {
          "attributes": {
            "NORMAL": 22,
            "POSITION": 21
          },
          "indices": 23,
          "material": 7,
          "mode": 4
        }
      ]
    },
    {
      "name": "Material3",
      "primitives": [
        {
          "attributes": {
            "NORMAL": 25,
            "POSITION": 24
          },
          "indices": 26,
          "material": 8,
          "mode": 4
        }
      ]
    },
    {
      "name": "Material3",
      "primitives": [
        {
          "attributes": {
            "NORMAL": 28,
            "POSITION": 27
          },
          "indices": 29,
          "material": 9,
          "mode": 4
        }
      ]
    },
    {
      "name": "Material3",
      "primitives": [
        {
          "attributes": {
            "NORMAL": 31,
            "POSITION": 30
          },
          "indices": 32,
          "material": 10,
          "mode": 4
        }
      ]
    }
  ],
  "nodes": [
    {
      "children": [
        1
      ],
      "matrix": [
        -4.440892098500626e-16,
        -2.220446049250313e-16,
        1.0,
        0.0,
        1.0,
        -9.860761315262648e-32,
        4.440892098500626e-16,
        0.0,
        0.0,
        1.0,
        2.220446049250313e-16,
        0.0,
        559.63134765625,
        8.157506652594834e-14,
        -367.3814392089844,
        1.0
      ],
      "name": "Sketchfab_model"
    },
    {
      "children": [
        2,
        3,
        4,
        5,
        6,
        7,
        8,
        9,
        10,
        11,
        12,
        13
      ],
      "name": "Collada visual scene group"
    },
    {
      "mesh": 0,
      "name": "Material3"
    },
    {
      "mesh": 1,
      "name": "Material2"
    },
    {
      "mesh": 2,
      "name": "Material3"
    },
    {
      "mesh": 3,
      "name": "Material2"
    },
    {
      "mesh": 4,
      "name": "Material3"
    },
    {
      "mesh": 5,
      "name": "Material3"
    },
    {
      "mesh": 6,
      "name": "Material3"
    },
    {
      "mesh": 7,
      "name": "Material3"
    },
    {
      "mesh": 8,
      "name": "Material3"
    },
    {
      "mesh": 9,
      "name": "Material3"
    },
    {
      "mesh": 10,
      "name": "Material3"
    },
    {
      "children": [
        14
      ],
      "name": "SketchUp"
    },
    {
      "children": [
        15
      ],
      "matrix": [
        -0.7685654,
        0.6397712,
        0.0,
        0.0,
        -0.1090649,
        -0.1310211,
        0.9853621,
        0.0,
        0.6304062,
        0.7573152,
        0.1704749,
        0.0,
        1477.8591309,
        965.4267578,
        419.7630615,
        1.0
      ],
      "name": "skp_camera_Last_Saved_SketchUp_View"
    },
    {
      "name": "ID1"
    }
  ],
  "scene": 0,
  "scenes": [
    {
      "name": "Sketchfab_Scene",
      "nodes": [
        0
      ]
    }
  ]
}
